PathFileType   4   (X/Y/Z)
DataRate  CameraRate  NumFrames  NumMarkers  Units  OrigDataRate  OrigDataStartFrame  OrigNumFrames  
  120.0      120.0        8         37         mm      120.0          118        134
Frame#      Time                    midhip                           hip_r                           hip_l                          knee_r                          knee_l                         ankle_r                         ankle_l                         midasis                          asis_r                          asis_l                          psis_r                          psis_l                    epicondLat_r                    epicondLat_l                    epicondMed_r                    epicondMed_l                  malleolusLat_r                  malleolusLat_l                 malleolusMedv_r                 malleolusMedv_l                    sternalnotch                  xyphoidprocess                            neck                           toe_r                           toe_l                     thighwand_r                     thighwand_l                     upperleg1_r                     upperleg1_l                     upperleg2_r                     upperleg2_l                     shankwand_r                     shankwand_l                     lowerleg1_r                     lowerleg1_l                   subclavicle_r                   subclavicle_l            
              X1          Y1          Z1          X2          Y2          Z2          X3          Y3          Z3          X4          Y4          Z4          X5          Y5          Z5          X6          Y6          Z6          X7          Y7          Z7          X8          Y8          Z8          X9          Y9          Z9          X10          Y10          Z10          X11          Y11          Z11          X12          Y12          Z12          X13          Y13          Z13          X14          Y14          Z14          X15          Y15          Z15          X16          Y16          Z16          X17          Y17          Z17          X18          Y18          Z18          X19          Y19          Z19          X20          Y20          Z20          X21          Y21          Z21          X22          Y22          Z22          X23          Y23          Z23          X24          Y24          Z24          X25          Y25          Z25          X26          Y26          Z26          X27          Y27          Z27          X28          Y28          Z28          X29          Y29          Z29          X30          Y30          Z30          X31          Y31          Z31          X32          Y32          Z32          X33          Y33          Z33          X34          Y34          Z34          X35          Y35          Z35          X36          Y36          Z36          X37          Y37          Z37          

	118	1.12500	2156.814	766.033	-261.341	2148.780	760.519	-204.746	2164.848	771.548	-317.936	2059.105	426.000	-200.159	2216.341	425.398	-330.807	1993.508	68.763	-215.958	2311.645	79.908	-341.091	2192.749	837.295	-250.133	2192.719	832.482	-139.563	2192.780	842.107	-360.703	2017.547	868.474	-219.505	2014.641	867.954	-273.901	2093.750	412.861	-140.421	2242.032	422.908	-389.290	2072.955	422.449	-260.723	2242.298	418.629	-270.239	1992.889	66.880	-178.510	2294.936	77.486	-373.451	1989.054	65.884	-249.144	2317.641	81.138	-308.077	2188.680	1188.388	-263.332	2192.447	1086.370	-267.855	2084.603	1263.281	-252.964	2075.534	47.238	-215.844	2400.421	67.782	-363.945	2231.989	538.379	-170.133	2298.190	595.379	-401.601	2184.079	582.590	-132.962	2266.950	630.157	-335.044	2162.812	527.072	-138.698	2275.358	572.290	-328.433	2141.628	155.512	-201.960	2247.521	177.599	-456.207	2060.256	157.402	-208.170	2273.424	170.098	-380.767	2193.157	1187.479	-206.900	2190.068	1189.466	-313.770
	119	1.13333	2162.805	764.977	-261.896	2154.575	759.660	-205.311	2171.036	770.293	-318.482	2064.144	425.201	-200.219	2221.951	422.041	-330.619	1994.052	69.159	-215.856	2329.153	81.099	-342.386	2198.796	836.304	-250.791	2198.407	831.832	-140.265	2199.184	840.776	-361.317	2023.520	867.679	-220.508	2020.857	867.342	-275.019	2096.893	412.650	-140.479	2248.340	421.837	-389.062	2078.294	421.942	-261.058	2247.386	417.936	-266.921	1993.216	67.359	-178.409	2312.775	78.340	-374.888	1989.370	66.998	-249.064	2334.193	82.364	-309.138	2195.263	1187.412	-264.244	2199.051	1085.397	-268.825	2091.172	1262.276	-253.944	2075.347	47.208	-215.755	2418.748	71.404	-363.922	2236.388	537.305	-169.899	2303.819	593.483	-401.564	2188.045	581.752	-132.556	2272.556	627.926	-335.718	2167.442	527.169	-138.401	2280.825	570.606	-327.987	2142.490	154.771	-201.260	2262.726	177.487	-457.540	2061.436	157.634	-207.458	2287.605	170.835	-381.451	2199.764	1186.478	-208.138	2196.631	1188.511	-314.360
	120	1.14167	2168.847	763.936	-262.514	2160.449	758.830	-205.933	2177.245	769.043	-319.094	2067.736	425.804	-200.266	2228.891	418.750	-330.483	1994.640	69.601	-215.752	2345.788	82.400	-343.504	2204.880	835.318	-251.519	2204.151	831.208	-141.028	2205.609	839.427	-362.010	2029.457	866.890	-221.528	2027.111	866.657	-276.215	2100.060	412.461	-140.524	2254.853	420.805	-388.906	2081.885	421.131	-259.265	2253.589	416.288	-265.406	1993.580	67.889	-178.307	2329.781	79.358	-376.166	1989.641	68.146	-248.957	2350.365	83.612	-310.188	2201.992	1186.657	-265.121	2205.957	1084.666	-270.048	2097.832	1261.262	-254.820	2075.180	47.188	-215.688	2436.085	75.341	-363.630	2240.754	536.263	-169.634	2309.577	591.596	-401.495	2193.078	581.545	-133.147	2277.902	625.436	-336.273	2172.117	527.524	-138.142	2286.414	568.750	-327.939	2143.400	154.055	-200.533	2277.521	177.602	-458.799	2062.461	157.870	-206.693	2301.786	171.626	-382.119	2206.461	1185.544	-209.156	2203.387	1187.927	-315.093
	121	1.15000	2174.987	762.947	-263.191	2166.436	758.040	-206.616	2183.537	767.855	-319.766	2072.007	425.980	-200.298	2236.283	416.961	-330.367	1995.250	70.097	-215.652	2361.515	83.697	-344.413	2211.007	834.348	-252.302	2209.959	830.611	-141.836	2212.055	838.085	-362.768	2035.390	866.108	-222.590	2033.428	865.902	-277.505	2103.273	412.286	-140.569	2261.595	419.829	-388.804	2086.392	419.928	-257.834	2260.378	413.908	-266.787	1993.971	68.476	-178.209	2345.908	80.426	-377.245	1990.117	68.942	-248.858	2365.900	85.237	-311.139	2208.521	1185.716	-265.792	2212.391	1083.712	-270.547	2104.488	1260.395	-255.460	2075.090	47.183	-215.624	2452.365	79.386	-363.076	2245.156	535.269	-169.355	2315.509	589.780	-401.359	2198.160	581.824	-133.836	2283.031	623.660	-336.235	2176.784	527.496	-138.097	2292.037	567.121	-328.215	2144.372	153.355	-199.821	2291.840	177.867	-459.966	2063.408	158.072	-206.223	2315.692	172.340	-383.300	2212.914	1184.687	-209.729	2209.984	1186.905	-315.854
	122	1.15833	2181.235	761.976	-263.884	2172.534	757.258	-207.315	2189.935	766.694	-320.452	2077.452	425.248	-200.332	2242.043	416.474	-330.267	1995.861	70.654	-215.558	2376.315	84.883	-345.099	2217.179	833.404	-253.121	2215.834	830.033	-142.671	2218.524	836.775	-363.571	2041.376	865.333	-223.720	2039.797	865.090	-278.902	2106.561	412.116	-140.632	2268.574	418.915	-388.745	2092.149	418.956	-257.762	2265.516	411.404	-269.620	1994.379	69.123	-178.119	2361.125	81.434	-378.108	1990.807	69.689	-248.798	2380.362	86.990	-311.854	2215.029	1184.665	-266.862	2218.667	1082.625	-270.973	2111.337	1259.526	-255.905	2075.103	47.197	-215.550	2467.543	83.318	-362.287	2249.693	534.329	-169.082	2321.661	588.102	-401.128	2203.026	581.667	-133.939	2288.646	622.465	-335.900	2181.794	527.152	-138.096	2297.670	565.146	-328.578	2145.411	152.665	-199.163	2305.612	178.199	-461.020	2064.687	158.309	-205.928	2328.860	173.033	-384.651	2219.285	1183.972	-210.586	2216.615	1185.541	-317.123
	123	1.16667	2187.428	761.065	-264.592	2178.577	756.545	-208.031	2196.277	765.586	-321.153	2081.842	425.224	-200.401	2247.658	415.966	-330.139	1996.451	71.272	-215.471	2390.168	85.858	-345.560	2223.395	832.487	-253.949	2221.769	829.460	-143.506	2225.022	835.515	-364.392	2047.478	864.544	-224.968	2046.337	864.212	-280.377	2109.956	411.943	-140.740	2275.783	418.060	-388.724	2096.805	418.669	-257.809	2270.245	409.019	-272.214	1994.791	69.831	-178.036	2375.396	82.274	-378.745	1991.534	70.532	-248.755	2394.213	88.679	-312.459	2221.793	1183.447	-267.815	2225.203	1081.393	-271.787	2118.308	1258.526	-256.547	2075.235	47.239	-215.455	2481.589	86.932	-361.311	2254.441	533.434	-168.833	2328.071	586.604	-400.786	2207.962	581.054	-133.997	2294.696	620.994	-335.584	2186.584	526.842	-138.085	2303.480	563.210	-328.912	2146.512	151.981	-198.597	2318.766	178.526	-461.940	2066.193	158.529	-205.657	2341.768	173.649	-386.056	2225.969	1182.816	-211.405	2223.451	1184.255	-318.201
	124	1.17500	2193.711	760.138	-265.329	2184.725	755.792	-208.776	2202.698	764.484	-321.882	2085.723	425.348	-200.543	2254.317	414.787	-329.980	1997.003	71.948	-215.393	2403.050	86.548	-345.808	2229.652	831.595	-254.766	2227.753	828.877	-144.325	2231.551	834.312	-365.206	2053.711	863.754	-226.347	2053.023	863.284	-281.902	2113.496	411.755	-140.916	2283.202	417.258	-388.749	2101.078	418.054	-257.576	2275.507	407.270	-273.151	1995.198	70.597	-177.961	2388.688	82.868	-379.162	1992.129	71.549	-248.709	2407.106	89.889	-312.838	2228.631	1182.065	-268.262	2231.807	1080.004	-272.243	2124.986	1257.612	-257.627	2075.467	47.315	-215.343	2494.480	90.058	-360.203	2259.423	532.569	-168.618	2334.770	585.307	-400.344	2212.826	580.292	-134.363	2300.773	619.435	-335.397	2191.152	526.519	-138.151	2309.431	561.711	-328.880	2147.671	151.298	-198.156	2331.239	178.782	-462.709	2067.688	158.766	-205.344	2354.013	174.109	-387.028	2232.773	1181.418	-211.837	2230.319	1182.875	-318.660
	125	1.18333	2200.022	759.238	-266.054	2190.906	755.033	-209.511	2209.138	763.443	-322.597	2090.384	424.458	-200.795	2261.507	412.902	-329.913	1997.515	72.680	-215.332	2414.926	86.896	-345.853	2235.950	830.716	-255.558	2233.786	828.270	-145.119	2238.115	833.163	-365.996	2060.084	862.957	-227.854	2059.891	862.312	-283.428	2117.214	411.542	-141.176	2290.803	416.500	-388.828	2106.289	416.467	-257.419	2281.005	406.693	-271.322	1995.602	71.417	-177.902	2400.959	83.153	-379.367	1992.565	72.596	-248.653	2418.298	90.361	-312.795	2235.459	1180.855	-269.177	2238.497	1078.800	-273.414	2131.645	1256.708	-258.939	2075.768	47.432	-215.225	2506.204	92.583	-359.016	2264.615	531.713	-168.445	2341.772	584.207	-399.832	2217.319	579.396	-134.754	2307.039	618.048	-335.270	2195.734	525.945	-138.238	2315.558	560.803	-328.149	2148.890	150.603	-197.859	2342.980	178.915	-463.316	2068.994	158.970	-205.067	2364.778	174.421	-387.256	2239.580	1180.066	-213.060	2237.167	1181.785	-319.265
